<svg width="512" height="512" viewBox="0 0 512 512" xmlns="http://www.w3.org/2000/svg">
  <path d="M 113.0 402.0 L 105.0 409.0 L 105.0 411.0 L 102.0 414.0 L 82.0 414.0 L 81.0 416.0 L 76.0 416.0 L 68.0 424.0 L 68.0 427.0 L 64.0 432.0 L 64.0 442.0 L 66.0 444.0 L 68.0 452.0 L 76.0 460.0 L 80.0 460.0 L 82.0 462.0 L 98.0 462.0 L 102.0 460.0 L 110.0 452.0 L 112.0 444.0 L 114.0 442.0 L 114.0 434.0 L 112.0 433.0 L 112.0 428.0 L 110.0 427.0 L 110.0 424.0 L 108.0 423.0 L 106.0 417.0 L 110.0 413.0 L 114.0 405.0 Z M 378.0 275.0 L 376.0 271.0 L 368.0 264.0 L 359.0 264.0 L 345.0 274.0 L 334.0 279.0 L 333.0 281.0 L 325.0 283.0 L 315.0 289.0 L 303.0 291.0 L 301.0 293.0 L 289.0 295.0 L 287.0 297.0 L 281.0 297.0 L 280.0 299.0 L 271.0 299.0 L 270.0 301.0 L 260.0 301.0 L 258.0 303.0 L 254.0 303.0 L 248.0 309.0 L 248.0 319.0 L 250.0 323.0 L 254.0 325.0 L 260.0 325.0 L 262.0 323.0 L 272.0 323.0 L 274.0 321.0 L 281.0 322.0 L 284.0 319.0 L 289.0 320.0 L 292.0 317.0 L 297.0 318.0 L 298.0 316.0 L 304.0 316.0 L 306.0 314.0 L 316.0 312.0 L 322.0 308.0 L 326.0 308.0 L 332.0 304.0 L 336.0 304.0 L 356.0 294.0 L 359.0 290.0 L 362.0 290.0 L 365.0 286.0 L 368.0 286.0 L 371.0 282.0 L 374.0 282.0 L 378.0 278.0 Z M 113.0 37.0 L 113.0 40.0 L 111.0 41.0 L 111.0 391.0 L 116.0 398.0 L 127.0 398.0 L 132.0 393.0 L 131.0 392.0 L 135.0 388.0 L 137.0 382.0 L 141.0 378.0 L 145.0 370.0 L 151.0 364.0 L 151.0 362.0 L 171.0 334.0 L 170.0 333.0 L 174.0 329.0 L 174.0 327.0 L 178.0 323.0 L 186.0 309.0 L 190.0 306.0 L 190.0 303.0 L 194.0 300.0 L 194.0 297.0 L 198.0 294.0 L 198.0 291.0 L 202.0 288.0 L 202.0 285.0 L 206.0 282.0 L 210.0 274.0 L 216.0 268.0 L 215.0 267.0 L 219.0 263.0 L 219.0 261.0 L 223.0 257.0 L 223.0 255.0 L 227.0 251.0 L 227.0 249.0 L 231.0 245.0 L 231.0 243.0 L 235.0 239.0 L 235.0 237.0 L 239.0 233.0 L 239.0 231.0 L 243.0 227.0 L 251.0 213.0 L 254.0 210.0 L 260.0 210.0 L 262.0 212.0 L 278.0 214.0 L 279.0 216.0 L 287.0 216.0 L 289.0 218.0 L 295.0 218.0 L 297.0 220.0 L 303.0 220.0 L 305.0 222.0 L 321.0 226.0 L 333.0 232.0 L 335.0 231.0 L 338.0 234.0 L 339.0 233.0 L 363.0 245.0 L 367.0 249.0 L 375.0 253.0 L 381.0 259.0 L 383.0 259.0 L 400.0 276.0 L 400.0 278.0 L 406.0 284.0 L 406.0 286.0 L 414.0 296.0 L 418.0 304.0 L 417.0 307.0 L 422.0 314.0 L 421.0 317.0 L 424.0 320.0 L 423.0 326.0 L 425.0 328.0 L 425.0 338.0 L 427.0 340.0 L 427.0 355.0 L 425.0 356.0 L 425.0 368.0 L 423.0 370.0 L 424.0 375.0 L 421.0 378.0 L 422.0 383.0 L 417.0 390.0 L 418.0 393.0 L 408.0 407.0 L 408.0 409.0 L 402.0 415.0 L 402.0 417.0 L 389.0 430.0 L 387.0 430.0 L 375.0 440.0 L 359.0 448.0 L 358.0 447.0 L 355.0 450.0 L 352.0 449.0 L 349.0 452.0 L 344.0 451.0 L 342.0 453.0 L 330.0 453.0 L 329.0 455.0 L 188.0 455.0 L 181.0 462.0 L 181.0 471.0 L 190.0 478.0 L 320.0 478.0 L 322.0 476.0 L 340.0 476.0 L 342.0 474.0 L 350.0 474.0 L 351.0 472.0 L 362.0 470.0 L 363.0 468.0 L 373.0 466.0 L 385.0 460.0 L 389.0 456.0 L 397.0 452.0 L 404.0 445.0 L 406.0 445.0 L 421.0 430.0 L 420.0 429.0 L 426.0 423.0 L 432.0 411.0 L 436.0 407.0 L 436.0 403.0 L 442.0 393.0 L 442.0 387.0 L 444.0 386.0 L 444.0 381.0 L 446.0 380.0 L 446.0 372.0 L 448.0 370.0 L 448.0 327.0 L 446.0 325.0 L 446.0 317.0 L 444.0 315.0 L 442.0 303.0 L 440.0 302.0 L 440.0 299.0 L 438.0 298.0 L 438.0 295.0 L 436.0 294.0 L 434.0 287.0 L 432.0 286.0 L 430.0 280.0 L 426.0 276.0 L 422.0 268.0 L 394.0 240.0 L 392.0 240.0 L 386.0 234.0 L 385.0 235.0 L 381.0 231.0 L 375.0 229.0 L 372.0 225.0 L 369.0 225.0 L 368.0 223.0 L 365.0 223.0 L 364.0 221.0 L 361.0 221.0 L 360.0 219.0 L 357.0 219.0 L 356.0 217.0 L 348.0 213.0 L 344.0 213.0 L 338.0 209.0 L 334.0 209.0 L 332.0 207.0 L 328.0 207.0 L 326.0 205.0 L 310.0 201.0 L 309.0 199.0 L 302.0 199.0 L 301.0 197.0 L 295.0 197.0 L 293.0 195.0 L 288.0 196.0 L 285.0 193.0 L 282.0 194.0 L 279.0 191.0 L 272.0 192.0 L 269.0 189.0 L 262.0 190.0 L 260.0 188.0 L 254.0 188.0 L 251.0 185.0 L 248.0 188.0 L 244.0 188.0 L 240.0 192.0 L 232.0 206.0 L 226.0 212.0 L 216.0 230.0 L 207.0 240.0 L 207.0 243.0 L 203.0 246.0 L 203.0 249.0 L 199.0 252.0 L 199.0 255.0 L 195.0 258.0 L 195.0 261.0 L 191.0 264.0 L 191.0 266.0 L 187.0 270.0 L 179.0 284.0 L 173.0 290.0 L 174.0 291.0 L 170.0 295.0 L 170.0 297.0 L 166.0 301.0 L 166.0 303.0 L 162.0 307.0 L 154.0 321.0 L 148.0 327.0 L 146.0 333.0 L 137.0 344.0 L 133.0 342.0 L 133.0 57.0 L 319.0 56.0 L 321.0 58.0 L 334.0 58.0 L 336.0 60.0 L 339.0 59.0 L 342.0 62.0 L 347.0 61.0 L 354.0 66.0 L 357.0 65.0 L 365.0 69.0 L 369.0 73.0 L 377.0 77.0 L 394.0 94.0 L 394.0 96.0 L 400.0 102.0 L 402.0 108.0 L 408.0 116.0 L 408.0 120.0 L 412.0 126.0 L 414.0 138.0 L 416.0 139.0 L 416.0 149.0 L 418.0 151.0 L 418.0 168.0 L 416.0 170.0 L 416.0 182.0 L 414.0 184.0 L 414.0 190.0 L 412.0 192.0 L 410.0 202.0 L 408.0 203.0 L 408.0 206.0 L 406.0 207.0 L 406.0 210.0 L 404.0 211.0 L 404.0 214.0 L 402.0 215.0 L 402.0 218.0 L 400.0 219.0 L 396.0 227.0 L 396.0 233.0 L 408.0 243.0 L 411.0 243.0 L 417.0 237.0 L 430.0 212.0 L 430.0 208.0 L 434.0 200.0 L 434.0 194.0 L 436.0 192.0 L 436.0 184.0 L 438.0 182.0 L 438.0 165.0 L 440.0 163.0 L 440.0 153.0 L 438.0 151.0 L 438.0 137.0 L 436.0 135.0 L 436.0 129.0 L 434.0 128.0 L 434.0 121.0 L 432.0 120.0 L 432.0 115.0 L 430.0 114.0 L 428.0 106.0 L 422.0 94.0 L 418.0 90.0 L 419.0 89.0 L 413.0 83.0 L 413.0 81.0 L 394.0 62.0 L 393.0 63.0 L 387.0 57.0 L 367.0 47.0 L 366.0 45.0 L 361.0 45.0 L 356.0 41.0 L 351.0 41.0 L 350.0 39.0 L 344.0 39.0 L 342.0 37.0 L 332.0 37.0 L 330.0 35.0 L 117.0 35.0 L 116.0 37.0 Z" fill="#FFFFFF" fill-rule="evenodd"/>
</svg>
